<svg xmlns="http://www.w3.org/2000/svg" viewBox="0 0 180 55"><defs><style>.a799957f-cc05-4d78-9f00-bd67de3e9c7f{fill:#fff;}</style></defs><title>explories-landscape-white</title><g id="dbd13a10-fb1d-40ec-aeda-88ee87860088" data-name="explories-landscape-white"><circle cx="24.31" cy="22.25" r="13"/><path class="a799957f-cc05-4d78-9f00-bd67de3e9c7f" d="M24.45,48h-.27c-1-6.8-6.94-12.7-8.92-14.48L14.64,33h0A14.39,14.39,0,0,1,24.31,8h0A14.35,14.35,0,0,1,38.62,22.38h0A14.36,14.36,0,0,1,34,33h0c-.2.19-.41.37-.62.55C31.38,35.3,25.4,41.2,24.45,48ZM36.56,22.39A12.15,12.15,0,1,0,24.41,34.62,12.21,12.21,0,0,0,36.56,22.39Z"/><path class="a799957f-cc05-4d78-9f00-bd67de3e9c7f" d="M33.29,25.42c0,.14-.17.66-.35,1.57a5.85,5.85,0,0,1-.68,1.09,4.38,4.38,0,0,1-.82.73,3.85,3.85,0,0,1-.83.43,3.36,3.36,0,0,1-.77.2,4.91,4.91,0,0,1-.67.06,2.42,2.42,0,0,1-.92-.17,1.85,1.85,0,0,1-.68-.52,3.7,3.7,0,0,1-.52-.9,11.87,11.87,0,0,1-.41-1.32,7.54,7.54,0,0,1-1.43,1.28,10.39,10.39,0,0,1-1.78,1,11.19,11.19,0,0,1-2,.63,8.93,8.93,0,0,1-1.93.23,6,6,0,0,1-1.62-.22,3.71,3.71,0,0,1-1.33-.67,3.32,3.32,0,0,1-.91-1.19,4.29,4.29,0,0,1-.33-1.77,5.9,5.9,0,0,1,.28-1.77,6.3,6.3,0,0,1,.8-1.7A5.84,5.84,0,0,1,17.71,21a4.62,4.62,0,0,1,1.72-.85,3,3,0,0,1-1-1.21,3.4,3.4,0,0,1-.32-1.44,4.55,4.55,0,0,1,.36-1.7,5.27,5.27,0,0,1,1-1.52A5.1,5.1,0,0,1,21,13.2a4.46,4.46,0,0,1,1.94-.42,4.33,4.33,0,0,1,1.24.18,3.23,3.23,0,0,1,1,.52,2.57,2.57,0,0,1,.67.86,2.77,2.77,0,0,1,.24,1.2,2.88,2.88,0,0,1-.13.92,2.19,2.19,0,0,1-.35.72,1.62,1.62,0,0,1-.53.48,1.16,1.16,0,0,1-.63.18,1.25,1.25,0,0,1-1-.6.81.81,0,0,0,.37-.27,2.13,2.13,0,0,0,.31-.47,2.37,2.37,0,0,0,.21-.58,2.47,2.47,0,0,0,.08-.6,1.38,1.38,0,0,0-.11-.57,1,1,0,0,0-.66-.59,1.41,1.41,0,0,0-.45-.07,1.64,1.64,0,0,0-.91.27,2.53,2.53,0,0,0-.71.71,3.28,3.28,0,0,0-.47,1,3.66,3.66,0,0,0-.16,1.14,3.28,3.28,0,0,0,.12.94,2.68,2.68,0,0,0,.39.86,2.87,2.87,0,0,0,.7.69,3.48,3.48,0,0,0,1,.46,3.66,3.66,0,0,0-1.11.43,5.19,5.19,0,0,0-1,.71,5.74,5.74,0,0,0-.79.92,7.72,7.72,0,0,0-.58,1.05,6.22,6.22,0,0,0-.38,1.1,4.63,4.63,0,0,0-.12,1.05,2.78,2.78,0,0,0,.16,1,1.73,1.73,0,0,0,.47.69,1.83,1.83,0,0,0,.72.4,2.73,2.73,0,0,0,.9.13,4.9,4.9,0,0,0,1.26-.17A7.58,7.58,0,0,0,24,27a8.93,8.93,0,0,0,1.25-.77,7.86,7.86,0,0,0,1.08-1l-1.1-6h3.12l.7,3.91c.33-.35.63-.69.89-1a9.07,9.07,0,0,0,.66-1,4.67,4.67,0,0,0,.41-.84,1.91,1.91,0,0,0,.14-.67v-.16a.36.36,0,0,0,0-.11l-.2,0h-.17a1.24,1.24,0,0,1-.5-.1A.86.86,0,0,1,30,19a1.15,1.15,0,0,1-.18-.39,2.61,2.61,0,0,1-.05-.48.89.89,0,0,1,.36-.78A1.43,1.43,0,0,1,31,17.1a1.33,1.33,0,0,1,.65.16,1.49,1.49,0,0,1,.48.42,2,2,0,0,1,.28.62,2.86,2.86,0,0,1,.1.77,3.39,3.39,0,0,1-.19,1.1,5.74,5.74,0,0,1-.57,1.2,13.43,13.43,0,0,1-1,1.36c-.4.49-.87,1-1.42,1.59l.2,1.1.13.65a2.74,2.74,0,0,0,.21.63,1.55,1.55,0,0,0,.36.48.93.93,0,0,0,.6.19,1.36,1.36,0,0,0,.63-.15,2,2,0,0,0,.57-.4,2.56,2.56,0,0,0,.46-.62,3.58,3.58,0,0,0,.33-.78Z"/><path class="a799957f-cc05-4d78-9f00-bd67de3e9c7f" d="M75.51,33c-.07.21-.24,1-.55,2.48a8,8,0,0,1-1.09,1.71,6,6,0,0,1-1.32,1.15,5.69,5.69,0,0,1-1.33.66,6.82,6.82,0,0,1-1.22.32,5.3,5.3,0,0,1-1,.07,3.49,3.49,0,0,1-1.46-.28,2.6,2.6,0,0,1-1.08-.84,4.6,4.6,0,0,1-.81-1.43,14.54,14.54,0,0,1-.66-2.06,12.16,12.16,0,0,1-2.27,2,15,15,0,0,1-2.82,1.57,19.85,19.85,0,0,1-3.11,1,13.14,13.14,0,0,1-3.07.34,9.33,9.33,0,0,1-2.58-.34A6.06,6.06,0,0,1,49,38.37a4.69,4.69,0,0,1-1.43-1.89A6.29,6.29,0,0,1,47,33.69a8.37,8.37,0,0,1,.46-2.79,10.09,10.09,0,0,1,1.29-2.69,10.28,10.28,0,0,1,2-2.19,7.34,7.34,0,0,1,2.72-1.33,4.91,4.91,0,0,1-2.12-4.19,7.21,7.21,0,0,1,.55-2.68,7.55,7.55,0,0,1,1.61-2.41A8.05,8.05,0,0,1,56,13.66,7.4,7.4,0,0,1,59.08,13a7.13,7.13,0,0,1,2,.28,4.52,4.52,0,0,1,1.61.84,3.79,3.79,0,0,1,1.08,1.36,4.31,4.31,0,0,1,.38,1.88,4.85,4.85,0,0,1-.21,1.43,3.49,3.49,0,0,1-.55,1.15,2.5,2.5,0,0,1-.84.77,2.08,2.08,0,0,1-1,.28,2,2,0,0,1-1.64-.94,1.53,1.53,0,0,0,.59-.42,4.44,4.44,0,0,0,.49-.73,8.18,8.18,0,0,0,.35-.91,4.29,4.29,0,0,0,.1-.94,2,2,0,0,0-.17-.91,1.67,1.67,0,0,0-1.09-.91,2.35,2.35,0,0,0-.69-.1,2.53,2.53,0,0,0-1.43.42,3.4,3.4,0,0,0-1.12,1.11,6.59,6.59,0,0,0-.73,1.57,6.23,6.23,0,0,0-.28,1.82,5.54,5.54,0,0,0,.21,1.5,4.82,4.82,0,0,0,.63,1.36A4.08,4.08,0,0,0,57.82,24a6.32,6.32,0,0,0,1.61.73,6.28,6.28,0,0,0-1.78.67,9.86,9.86,0,0,0-1.54,1.11A13.48,13.48,0,0,0,54.86,28a12.91,12.91,0,0,0-1,1.67,10.48,10.48,0,0,0-.59,1.71A6.9,6.9,0,0,0,53.11,33a4.36,4.36,0,0,0,.28,1.64,3,3,0,0,0,.73,1.08,3.48,3.48,0,0,0,1.15.63,5,5,0,0,0,1.44.21,7.7,7.7,0,0,0,2-.28,10.24,10.24,0,0,0,2.06-.8,14.93,14.93,0,0,0,2-1.22,10.59,10.59,0,0,0,1.71-1.57l-1.74-9.53h4.95l1.12,6.18c.52-.56,1-1.09,1.43-1.64a16.85,16.85,0,0,0,1.05-1.5,9.68,9.68,0,0,0,.66-1.33,2.85,2.85,0,0,0,.21-1.08v-.25c0-.07,0-.14,0-.17a1.36,1.36,0,0,1-.31,0H71.5a1.82,1.82,0,0,1-.77-.14,1.18,1.18,0,0,1-.49-.41,2,2,0,0,1-.27-.63,1.8,1.8,0,0,1-.07-.77,1.36,1.36,0,0,1,.55-1.22,2.52,2.52,0,0,1,1.4-.42,2.28,2.28,0,0,1,1.05.24,2.45,2.45,0,0,1,.76.67,3.59,3.59,0,0,1,.46,1,5.12,5.12,0,0,1-.18,3,9.28,9.28,0,0,1-.9,1.88,18.26,18.26,0,0,1-1.57,2.13c-.63.77-1.36,1.61-2.24,2.52L69.55,33c.07.31.14.66.21,1a3.68,3.68,0,0,0,.35,1,2.84,2.84,0,0,0,.55.77,1.55,1.55,0,0,0,1,.32,2,2,0,0,0,1-.25,3.63,3.63,0,0,0,.9-.63,5.08,5.08,0,0,0,.74-1A7.82,7.82,0,0,0,74.78,33ZM72.65,48l5.86-27.43h5.06L83,23.19a6.52,6.52,0,0,1,1.78-1.08,5.16,5.16,0,0,1,2.33-.42,5.29,5.29,0,0,1,1.68.28,3.18,3.18,0,0,1,1.36.91,4.63,4.63,0,0,1,.91,1.67,9.47,9.47,0,0,1,.35,2.62,19.72,19.72,0,0,1-.18,2.54,16.11,16.11,0,0,1-.56,2.73,13.12,13.12,0,0,1-1,2.65A8.46,8.46,0,0,1,88,37.32a7.7,7.7,0,0,1-2.27,1.57,7.41,7.41,0,0,1-3,.6,6.4,6.4,0,0,1-1.15-.11,3.46,3.46,0,0,1-.84-.28,3,3,0,0,1-.59-.38,3.85,3.85,0,0,1-.38-.46L78,46.74Zm7.68-12.35a1.28,1.28,0,0,0,.42.56,1.49,1.49,0,0,0,.91.24A3,3,0,0,0,83.3,36a4.41,4.41,0,0,0,1.25-1.26A8.73,8.73,0,0,0,85.49,33a16.92,16.92,0,0,0,.63-2,12.66,12.66,0,0,0,.35-2.06,15.7,15.7,0,0,0,.11-1.81,5.82,5.82,0,0,0-.18-1.57,2.53,2.53,0,0,0-.45-.88,1,1,0,0,0-.56-.34,2.45,2.45,0,0,0-.56-.07,2.58,2.58,0,0,0-1.26.41A3.78,3.78,0,0,0,82.42,26ZM103.15,33a7.17,7.17,0,0,0-.1,1.22,8,8,0,0,0,.1,1.29,15.25,15.25,0,0,1-1.29,1.68,5.61,5.61,0,0,1-1.36,1.15,5.9,5.9,0,0,1-1.36.66,7.26,7.26,0,0,1-1.26.32,5.3,5.3,0,0,1-1,.07,4,4,0,0,1-1.46-.25,3.09,3.09,0,0,1-1.19-.73,3.77,3.77,0,0,1-.8-1.29,5.08,5.08,0,0,1-.28-1.89c0-.35,0-.69.07-1A9.6,9.6,0,0,1,93.38,33l3.77-17.44,5.2-.7-4,18.81a1.55,1.55,0,0,0-.11.56c0,.17,0,.38,0,.55a1.23,1.23,0,0,0,.34,1,1.74,1.74,0,0,0,1.09.28,2,2,0,0,0,1-.25,3.89,3.89,0,0,0,.91-.63,5.47,5.47,0,0,0,.73-1A7.82,7.82,0,0,0,102.8,33Zm18-5.23a20.64,20.64,0,0,1-3.77,1.11,15.72,15.72,0,0,1-.94,4.36,11.55,11.55,0,0,1-1.85,3.32,8.17,8.17,0,0,1-2.55,2.09,6.59,6.59,0,0,1-3,.74,8.23,8.23,0,0,1-2.26-.32,4.31,4.31,0,0,1-1.78-.94,4.14,4.14,0,0,1-1.16-1.71,6.3,6.3,0,0,1-.41-2.55,13.21,13.21,0,0,1,.2-2.34,14.9,14.9,0,0,1,.7-2.68,15.25,15.25,0,0,1,1.22-2.69,10.21,10.21,0,0,1,1.82-2.34,9,9,0,0,1,2.48-1.67,7.07,7.07,0,0,1,3.21-.63q4.5,0,4.5,5.55a.27.27,0,0,0,.17.07h.21a5.27,5.27,0,0,0,1.33-.18,20.61,20.61,0,0,0,2.34-1Zm-6.7,1.25a1,1,0,0,1-.74-.52,2.09,2.09,0,0,1-.21-.94,1.81,1.81,0,0,1,.32-1.19,1.57,1.57,0,0,1,.8-.7c0-.31-.07-.63-.1-.94a2.36,2.36,0,0,0-.25-.63.92.92,0,0,0-.38-.35,1.66,1.66,0,0,0-.59-.1,1.79,1.79,0,0,0-1.23.49A6.57,6.57,0,0,0,111,25.46a9.18,9.18,0,0,0-.94,1.81,16.27,16.27,0,0,0-.74,2.13,21.85,21.85,0,0,0-.49,2.16,12.56,12.56,0,0,0-.17,1.92,9,9,0,0,0,.1,1.4,2,2,0,0,0,.32.87,1,1,0,0,0,.56.42,2.18,2.18,0,0,0,.83.1,2,2,0,0,0,1.3-.55,5.9,5.9,0,0,0,1.18-1.54,13.36,13.36,0,0,0,1-2.3C114.11,31,114.32,30,114.46,29.05Zm4.6,10.23,3.74-17.42h5.06L127.4,24l.95-.81a10.54,10.54,0,0,1,1-.69,6.17,6.17,0,0,1,1.08-.49,3.48,3.48,0,0,1,1.19-.18,2.65,2.65,0,0,1,1,.21,2.47,2.47,0,0,1,.77.6,2.31,2.31,0,0,1,.45.83,3.06,3.06,0,0,1,.14,1,3.84,3.84,0,0,1-.14.91,2.18,2.18,0,0,1-.45.8,2.38,2.38,0,0,1-.8.59,2.44,2.44,0,0,1-1.12.25,1.48,1.48,0,0,1-.77-.18,1.21,1.21,0,0,1-.42-.42,1.45,1.45,0,0,1-.2-.55,2.86,2.86,0,0,0-.14-.56,2.53,2.53,0,0,0-.18-.42.44.44,0,0,0-.38-.18,2.65,2.65,0,0,0-1.36.35,8.06,8.06,0,0,0-1.19,1l-2.83,13.23Zm24.33-22.06a2.81,2.81,0,0,1-.21,1.08,2.93,2.93,0,0,1-.6.88,2.81,2.81,0,0,1-.9.59,2.91,2.91,0,0,1-2.17,0,3,3,0,0,1-.87-.59,3.09,3.09,0,0,1-.59-.88,2.81,2.81,0,0,1-.21-1.08,2.85,2.85,0,0,1,.21-1.08,3,3,0,0,1,.59-.87,2.88,2.88,0,0,1,.87-.6,3,3,0,0,1,2.17,0,3.15,3.15,0,0,1,.9.6,2.88,2.88,0,0,1,.6.87,3,3,0,0,1,.21,1.08Zm1.22,18.6c-.67.63-1.15,1.08-1.43,1.4a7.33,7.33,0,0,1-2.69,1.85,7.25,7.25,0,0,1-1.26.31,5.25,5.25,0,0,1-1,.07,4.28,4.28,0,0,1-1.47-.24,3,3,0,0,1-1.19-.74,3.83,3.83,0,0,1-.8-1.29,5,5,0,0,1-.28-1.88c0-.35,0-.7.07-1a9.76,9.76,0,0,1,.21-1.22l2.37-11.17h5.06l-2.51,11.83a1.62,1.62,0,0,0-.1.56c0,.18,0,.38,0,.56a1.23,1.23,0,0,0,.35,1,1.65,1.65,0,0,0,1.08.28,2.09,2.09,0,0,0,1-.24,3.35,3.35,0,0,0,1-.56,5.4,5.4,0,0,0,.87-1,5.74,5.74,0,0,0,.77-1.5,8.52,8.52,0,0,0-.11,1.88,3.87,3.87,0,0,0,.18,1.19Zm13.71-.45a21.39,21.39,0,0,1-2.3,2.09,12.91,12.91,0,0,1-2.65,1.47,9.11,9.11,0,0,1-3.18.56,8.24,8.24,0,0,1-2.27-.32,4.39,4.39,0,0,1-1.74-1,4.51,4.51,0,0,1-1.12-1.71,6.72,6.72,0,0,1-.38-2.51,12.78,12.78,0,0,1,.21-2.3,13.91,13.91,0,0,1,.66-2.69,14.1,14.1,0,0,1,1.19-2.69,10.85,10.85,0,0,1,1.77-2.37A7.73,7.73,0,0,1,151,22.25a7.07,7.07,0,0,1,3.21-.63,5,5,0,0,1,1.92.28,3.29,3.29,0,0,1,1.18.73,2.64,2.64,0,0,1,.6,1.05,5.44,5.44,0,0,1,.17,1.25,6.16,6.16,0,0,1-.66,2.83A7.76,7.76,0,0,1,155.6,30,9.34,9.34,0,0,1,153,31.6a10.27,10.27,0,0,1-3,.7c0,.24,0,.52-.07.73a4.86,4.86,0,0,0,0,.66,5.27,5.27,0,0,0,.17,1.47,1.89,1.89,0,0,0,.49.91,1.76,1.76,0,0,0,.8.45,4.09,4.09,0,0,0,1.12.14,5.68,5.68,0,0,0,1.88-.28,6.42,6.42,0,0,0,1.57-.73,8.82,8.82,0,0,0,1.4-1.12c.45-.42.87-.91,1.32-1.36-.17.77-.27,1.29-.34,1.57a5.27,5.27,0,0,0,0,.63Zm-8-4.78a4.79,4.79,0,0,0,1.92-.56,5.85,5.85,0,0,0,1.64-1.29A6.08,6.08,0,0,0,155,26.92a5.42,5.42,0,0,0,.42-2.09,2.77,2.77,0,0,0-.18-1,.68.68,0,0,0-.69-.38,2,2,0,0,0-1.33.63A7.32,7.32,0,0,0,152,25.7a13.48,13.48,0,0,0-1,2.3A22.35,22.35,0,0,0,150.29,30.59Zm19.76-9.81c.07,1.5.13,2.83.2,3.91s.14,2.06.18,2.86.1,1.5.14,2.06.1,1.08.14,1.5.07.84.07,1.19,0,.73,0,1.11a6.67,6.67,0,0,1-.31,2,5.91,5.91,0,0,1-.87,1.57,4.17,4.17,0,0,1-1.26,1.11,7.32,7.32,0,0,1-1.5.77,11.41,11.41,0,0,1-1.57.42,10.88,10.88,0,0,1-1.54.14,5.71,5.71,0,0,1-2.3-.38,5,5,0,0,1-1.6-1,4.31,4.31,0,0,1-1-1.43A4.23,4.23,0,0,1,158.6,35a3,3,0,0,1,.17-1.11,6.56,6.56,0,0,1,.42-.95,3,3,0,0,1,.6-.69,3.07,3.07,0,0,1,.69-.46A40.07,40.07,0,0,0,163,26.61c.66-1.71,1.29-3.42,1.85-5.13Zm-9.53,13.51A2.91,2.91,0,0,0,161,36.1a1.92,1.92,0,0,0,1.64.59,4,4,0,0,0,1.11-.17,2.36,2.36,0,0,0,1-.56,3,3,0,0,0,.7-1,3.83,3.83,0,0,0,.24-1.54,8.43,8.43,0,0,0,0-.87c0-.28,0-.56-.07-.87s-.07-.66-.11-1.05-.07-.84-.14-1.32-.1-1.12-.17-1.78-.1-1.47-.17-2.34a29.57,29.57,0,0,1-1.26,3.31c-.49,1.09-1,2.17-1.61,3.28a1.54,1.54,0,0,1,.56.49,1.08,1.08,0,0,1,.25.73,2,2,0,0,1-.11.63,1.71,1.71,0,0,1-.31.56,1.79,1.79,0,0,1-.49.39,1.43,1.43,0,0,1-.63.13,2.77,2.77,0,0,1-.56-.07A.62.62,0,0,1,160.52,34.29Z"/></g></svg>