<?xml version="1.0" encoding="utf-8"?>
<!-- Generator: Adobe Illustrator 21.1.0, SVG Export Plug-In . SVG Version: 6.00 Build 0)  -->
<svg version="1.1" id="menu" xmlns="http://www.w3.org/2000/svg" xmlns:xlink="http://www.w3.org/1999/xlink" x="0px" y="0px"
	 viewBox="0 0 32 32" style="enable-background:new 0 0 32 32;" xml:space="preserve">
<style type="text/css">
	.st0{fill:#FFFFFF;}
</style>
<g>
	<path class="st0" d="M32,6.7C32,7.4,31.4,8,30.7,8H1.3C0.6,8,0,7.4,0,6.7V4c0-0.7,0.6-1.3,1.3-1.3h29.3C31.4,2.7,32,3.3,32,4V6.7z
		 M32,17.3c0,0.7-0.6,1.3-1.3,1.3H1.3C0.6,18.6,0,18,0,17.3v-2.7c0-0.7,0.6-1.3,1.3-1.3h29.3c0.7,0,1.3,0.6,1.3,1.3v2.7H32z M32,28
		c0,0.7-0.6,1.3-1.3,1.3H1.3C0.6,29.3,0,28.7,0,28v-2.7C0,24.6,0.6,24,1.3,24h29.3c0.7,0,1.3,0.6,1.3,1.3V28H32z"/>
</g>
</svg>
