<svg id="ecm-icon" xmlns="http://www.w3.org/2000/svg" viewBox="0 0 32 32"><defs><style>.cls-1{fill:#fff;}</style></defs><title>icon-print</title><path class="cls-1" d="M26,21.77a.39.39,0,0,1-.38.38h-2.7v1.93a1.15,1.15,0,0,1-1.15,1.15H10.23a1.15,1.15,0,0,1-1.15-1.15V22.15H6.38A.39.39,0,0,1,6,21.77v-5a2.33,2.33,0,0,1,2.31-2.31h.77V7.92a1.15,1.15,0,0,1,1.15-1.15h8.08a3.19,3.19,0,0,1,2,.82l1.83,1.82a3.24,3.24,0,0,1,.81,2v3.08h.77A2.33,2.33,0,0,1,26,16.77ZM21.38,16V11.38H19.46a1.14,1.14,0,0,1-1.15-1.15V8.31H10.62V16Zm0,7.69V20.62H10.62v3.07ZM23.69,16a.77.77,0,1,0,.77.77A.78.78,0,0,0,23.69,16Z"/></svg>