<svg id="dd29cf49-6846-4c12-b39f-169418ea9a84" data-name="Layer 1" xmlns="http://www.w3.org/2000/svg" viewBox="0 0 32 32"><defs><style>.b7f9d8d2-841c-41d4-bd15-647a1b6df7d8{fill:#fff;}</style></defs><title>icon-link</title><path class="b7f9d8d2-841c-41d4-bd15-647a1b6df7d8" d="M16.36,19.35a4.5,4.5,0,0,1-2.44.08l.19.2,4.24,4.12a3.84,3.84,0,0,0,5.34,0l.1-.1a3.6,3.6,0,0,0-.1-5.1L21.07,16l-1.6-1.54a3.85,3.85,0,0,0-5.14-.18l-.2.18a3.72,3.72,0,0,0-.79,1.13l.7.69a1.39,1.39,0,0,0,.82.38,1.91,1.91,0,0,1,.53-1l.1-.08a2,2,0,0,1,2.7.08l2,1.95,2.23,2.18,0,.05a1.89,1.89,0,0,1,0,2.67,2,2,0,0,1-2.8,0l-3.26-3.17"/><path class="b7f9d8d2-841c-41d4-bd15-647a1b6df7d8" d="M8.28,8.18l-.1.1a3.6,3.6,0,0,0,.1,5.1l2,2,2.2,2.15a3.86,3.86,0,0,0,5.21.12l.13-.12a3.72,3.72,0,0,0,.79-1.13l-.7-.69a1.33,1.33,0,0,0-.82-.38,1.91,1.91,0,0,1-.53,1l-.13.12a2,2,0,0,1-2.66-.12l-2.25-2.19-2-1.94,0,0a1.89,1.89,0,0,1,0-2.67,2,2,0,0,1,2.8,0l3.26,3.17A4.53,4.53,0,0,1,18,12.58l-.2-.21L13.59,8.25a3.84,3.84,0,0,0-5.34,0"/></svg>