<svg id="f358e90f-0215-4b80-b5d5-df8178210c79" data-name="ecm-icon" xmlns="http://www.w3.org/2000/svg" viewBox="0 0 32 32"><title>icon-settings</title><path d="M8.27,9.64H5.09V7.82H8.27Zm9.09,7.27H5.09V15.09H17.36Zm-7.27,7.27h-5V22.36h5ZM14.18,6.91v3.64a.91.91,0,0,1-.91.9H9.64a.91.91,0,0,1-.91-.9V6.91A.91.91,0,0,1,9.64,6h3.63A.91.91,0,0,1,14.18,6.91ZM16,21.45v3.64a.91.91,0,0,1-.91.91H11.45a.91.91,0,0,1-.9-.91V21.45a.91.91,0,0,1,.9-.9h3.64A.91.91,0,0,1,16,21.45ZM26.91,9.64H14.64V7.82H26.91Zm0,14.54H16.46V22.36H26.91Zm-3.64-10v3.64a.91.91,0,0,1-.91.91H18.73a.91.91,0,0,1-.91-.91V14.18a.91.91,0,0,1,.91-.91h3.63A.91.91,0,0,1,23.27,14.18Zm3.64,2.73H23.73V15.09h3.18Z"/></svg>