<?xml version="1.0" encoding="utf-8"?>
<!-- Generator: Adobe Illustrator 21.1.0, SVG Export Plug-In . SVG Version: 6.00 Build 0)  -->
<svg version="1.1" id="Layer_1" xmlns="http://www.w3.org/2000/svg" xmlns:xlink="http://www.w3.org/1999/xlink" x="0px" y="0px"
	 viewBox="0 0 256 256" style="enable-background:new 0 0 256 256;" xml:space="preserve">
<style type="text/css">
	.st0{fill:#0077B5;}
	.st1{fill:#FFFFFF;}
</style>
<rect class="st0" width="256" height="256"/>
<g>
	<path class="st1" d="M38,96h38v122.2H38V96z M56.9,35.2c12.1,0,22,9.9,22,22c0,12.2-9.9,22-22,22c-12.2,0-22-9.9-22-22
		C34.9,45.1,44.8,35.2,56.9,35.2"/>
	<path class="st1" d="M99.7,96h36.4v16.7h0.5c5.1-9.6,17.5-19.7,35.9-19.7c38.4,0,45.5,25.3,45.5,58.2v67h-37.9v-59.4
		c0-14.2-0.3-32.4-19.7-32.4c-19.8,0-22.8,15.4-22.8,31.4v60.4H99.7V96z"/>
</g>
</svg>
